<?xml version="1.0" encoding="utf-8"?>
<!-- Generator: Adobe Illustrator 21.0.0, SVG Export Plug-In . SVG Version: 6.00 Build 0)  -->
<svg version="1.1" id="Слой_1" xmlns="http://www.w3.org/2000/svg" xmlns:xlink="http://www.w3.org/1999/xlink" x="0px" y="0px"
	 viewBox="0 0 93.6 65.3" style="enable-background:new 0 0 93.6 65.3;" xml:space="preserve">
<style type="text/css">
	.st0{fill:#FF2880;}
</style>
<g>
	<path class="st0" d="M60.9,26.1v28.5h12.8V26.1H60.9z M70.3,51.2h-6V29.5h6V51.2z"/>
	<path class="st0" d="M40.5,26.1v28.5h12.8V26.1H40.5z M49.9,51.2h-6V29.5h6V51.2z"/>
	<path class="st0" d="M20.2,26.1v28.5H33V26.1H20.2z M29.6,51.2h-6V29.5h6V51.2z"/>
	<path class="st0" d="M46.9,7.3c-3.1,0-5.5,2.5-5.5,5.5c0,3.1,2.5,5.5,5.5,5.5s5.5-2.5,5.5-5.5C52.5,9.7,50,7.3,46.9,7.3z
		 M46.9,14.9c-1.2,0-2.1-1-2.1-2.1s1-2.1,2.1-2.1s2.1,1,2.1,2.1S48.1,14.9,46.9,14.9z"/>
	<path class="st0" d="M11.8,24.1h70.1c1.6,0,2.9-1,3.2-2.5c0.4-1.5-0.3-3-1.7-3.7l-33.3-17c-2.1-1.1-4.5-1.1-6.6,0l-33.3,17
		c-1.4,0.7-2.1,2.2-1.7,3.7C9,23.1,10.3,24.1,11.8,24.1z M45.2,3.8c1.1-0.6,2.4-0.6,3.5,0l33,16.9H12.2L45.2,3.8z"/>
	<path class="st0" d="M14.1,58.2c0,0.9,0.8,1.7,1.7,1.7H78c0.9,0,1.7-0.8,1.7-1.7s-0.8-1.7-1.7-1.7H15.8
		C14.9,56.5,14.1,57.3,14.1,58.2z"/>
	<path class="st0" d="M83.6,61.9H10.2c-0.9,0-1.7,0.8-1.7,1.7c0,0.9,0.8,1.7,1.7,1.7h73.4c0.9,0,1.7-0.8,1.7-1.7
		S84.6,61.9,83.6,61.9z"/>
</g>
</svg>
