<?xml version="1.0" encoding="utf-8"?>
<!-- Generator: Adobe Illustrator 21.0.0, SVG Export Plug-In . SVG Version: 6.00 Build 0)  -->
<svg version="1.1" id="Слой_1" xmlns="http://www.w3.org/2000/svg" xmlns:xlink="http://www.w3.org/1999/xlink" x="0px" y="0px"
	 viewBox="0 0 93.6 65.3" style="enable-background:new 0 0 93.6 65.3;" xml:space="preserve">
<style type="text/css">
	.st0{fill:#FFFFFF;}
</style>
<g>
	<path class="st0" d="M28.7,21.2c0,3.8,3.1,7,7,7s7-3.1,7-7s-3.1-7-7-7S28.7,17.4,28.7,21.2z M35.7,18.2c1.6,0,3,1.3,3,3s-1.3,3-3,3
		s-3-1.3-3-3C32.7,19.6,34,18.2,35.7,18.2z"/>
	<path class="st0" d="M22.8,17.8c2.6,0,4.7-2.1,4.7-4.7s-2.1-4.7-4.7-4.7s-4.7,2.1-4.7,4.7S20.2,17.8,22.8,17.8z M22.8,11.3
		c1,0,1.8,0.8,1.8,1.8s-0.8,1.8-1.8,1.8S21,14.1,21,13.1S21.8,11.3,22.8,11.3z"/>
	<path class="st0" d="M28.9,6.9c1.9,0,3.4-1.5,3.4-3.4S30.8,0,28.9,0s-3.4,1.5-3.4,3.4S27,6.9,28.9,6.9z M28.9,2
		c0.8,0,1.4,0.6,1.4,1.4s-0.6,1.4-1.4,1.4s-1.4-0.6-1.4-1.4C27.4,2.7,28.1,2,28.9,2z"/>
	<path class="st0" d="M91.9,30.5h-1.3H72.8v3.4h14.4c-0.9,13-11.7,23.2-24.9,23.2H31.4c-13.2,0-24-10.3-24.9-23.2h48.7v-3.4H3H1.7
		c-0.9,0-1.7,0.8-1.7,1.7s0.8,1.7,1.7,1.7h1.4c0.7,11,7.6,20.3,17.3,24.4l-2.1,4.6c-0.4,0.9,0,1.9,0.8,2.3c0.2,0.1,0.5,0.2,0.7,0.2
		c0.6,0,1.3-0.4,1.5-1l2.3-4.9c2.5,0.7,5.1,1.1,7.8,1.1h30.9c2.7,0,5.3-0.4,7.8-1.1l2.3,4.9c0.3,0.6,0.9,1,1.5,1
		c0.2,0,0.5-0.1,0.7-0.2c0.9-0.4,1.2-1.4,0.8-2.3l-2.1-4.6c9.7-4.1,16.6-13.4,17.3-24.4H92c0.9,0,1.7-0.8,1.7-1.7
		C93.7,31.3,92.9,30.5,91.9,30.5z"/>
	<path class="st0" d="M60.7,48.1h6.7c2.4,0,4.3-1.9,4.3-4.3V28.2H56.3v15.6C56.3,46.2,58.3,48.1,60.7,48.1z M67.3,44.7h-6.7
		c-0.5,0-0.9-0.4-0.9-0.9v-2h8.6v2C68.3,44.3,67.9,44.7,67.3,44.7z M68.3,31.6v6.8h-8.6v-6.8C59.7,31.6,68.3,31.6,68.3,31.6z"/>
</g>
</svg>
