<?xml version="1.0" encoding="utf-8"?>
<!-- Generator: Adobe Illustrator 21.0.0, SVG Export Plug-In . SVG Version: 6.00 Build 0)  -->
<svg version="1.1" id="Слой_1" xmlns="http://www.w3.org/2000/svg" xmlns:xlink="http://www.w3.org/1999/xlink" x="0px" y="0px"
	 viewBox="0 0 93.6 65.3" style="enable-background:new 0 0 93.6 65.3;" xml:space="preserve">
<style type="text/css">
	.st0{fill:#FFFFFF;}
</style>
<path class="st0" d="M90.5,49.4h-1v-4.1c0-3.5-1.8-6.7-4.5-8.6V21.5c0-2.3-1.2-4.4-3.1-5.5c-9.3-5.6-21.8-8.6-35.1-8.6
	S21,10.4,11.7,16c-1.9,1.1-3.1,3.3-3.1,5.5v15.2c-2.7,1.9-4.5,5-4.5,8.6v4.1h-1c-0.9,0-1.7,0.8-1.7,1.7s0.8,1.7,1.7,1.7h1h4.8v3.5
	c0,0.9,0.8,1.7,1.7,1.7s1.7-0.8,1.7-1.7v-3.5h69v3.5c0,0.9,0.8,1.7,1.7,1.7s1.7-0.8,1.7-1.7v-3.5h4.8h1c0.9,0,1.7-0.8,1.7-1.7
	S91.5,49.4,90.5,49.4z M12,21.5c0-1.1,0.6-2.1,1.4-2.6c8.8-5.2,20.6-8.1,33.4-8.1s24.6,2.9,33.4,8.1c0.9,0.5,1.4,1.5,1.4,2.6v13.6
	c-0.8-0.2-1.7-0.3-2.6-0.3h-0.8v-1.2c0-3.5-2.8-6.3-6.3-6.3H54.8c-3.5,0-6.3,2.8-6.3,6.3v1.2h-3.3v-1.2c0-3.5-2.8-6.3-6.3-6.3H21.7
	c-3.5,0-6.3,2.8-6.3,6.3v1.2h-0.8c-0.9,0-1.8,0.1-2.6,0.3V21.5z M7.5,49.4v-4.1c0-3.9,3.2-7.1,7.1-7.1H79c3.9,0,7.1,3.2,7.1,7.1v4.1
	H7.5z"/>
</svg>
