<?xml version="1.0" encoding="utf-8"?>
<!-- Generator: Adobe Illustrator 21.0.0, SVG Export Plug-In . SVG Version: 6.00 Build 0)  -->
<svg version="1.1" id="Слой_1" xmlns="http://www.w3.org/2000/svg" xmlns:xlink="http://www.w3.org/1999/xlink" x="0px" y="0px"
	 viewBox="0 0 93.6 65.3" style="enable-background:new 0 0 93.6 65.3;" xml:space="preserve">
<style type="text/css">
	.st0{fill:#FF2880;}
</style>
<g>
	<path class="st0" d="M84.2,28l-14-6.8V7.7c0-0.6-0.5-1.1-1.1-1.1h-5.4c-0.6,0-1.1,0.5-1.1,1.1v9.7L43.1,7.9l-3.3-1.6l0,0l-4.6-2.2
		C34.4,3.7,33.4,4,33,4.9c-0.4,0.8-0.1,1.9,0.8,2.3l6.1,3v10.7l-24,13.8l-2.1,1.2l0,0l-4.4,2.5c-0.8,0.5-1.1,1.5-0.6,2.3
		c0.3,0.5,0.9,0.9,1.5,0.9c0.3,0,0.6-0.1,0.8-0.2l2.7-1.6v21.7h26.1h3.4h34.8V28.8l4.6,2.2c0.2,0.1,0.5,0.2,0.7,0.2
		c0.6,0,1.2-0.4,1.5-1C85.4,29.4,85,28.4,84.2,28z M64.7,8.9h3.2V20l-3.2-1.5V8.9z M32.6,58H24V42.7h8.6V58z M34.9,58V41.6
		c0-0.6-0.5-1.1-1.1-1.1H22.9c-0.6,0-1.1,0.5-1.1,1.1V58h-4.6V37.8l22.7-13.1V58H34.9z M74.7,58H43.2V18.9v-7.1l11.5,5.6l20,9.7V58z
		"/>
	<path class="st0" d="M51.4,21.7c-3,0-5.4,2.4-5.4,5.4s2.4,5.4,5.4,5.4s5.4-2.4,5.4-5.4S54.4,21.7,51.4,21.7z M51.4,30.1
		c-1.7,0-3.1-1.4-3.1-3.1s1.4-3.1,3.1-3.1s3.1,1.4,3.1,3.1S53.1,30.1,51.4,30.1z"/>
	<path class="st0" d="M46.1,40.1v11.7c0,0.6,0.5,1.1,1.1,1.1H59h11.8c0.6,0,1.1-0.5,1.1-1.1V40.1c0-0.6-0.5-1.1-1.1-1.1H59H47.2
		C46.6,38.9,46.1,39.4,46.1,40.1z M69.6,50.6h-9.5v-9.4h9.5V50.6z M48.3,41.2h9.5v9.4h-9.5V41.2z"/>
	<path class="st0" d="M31.7,35.3h-6.8c-0.6,0-1.1,0.5-1.1,1.1s0.5,1.1,1.1,1.1h6.8c0.6,0,1.1-0.5,1.1-1.1S32.4,35.3,31.7,35.3z"/>
</g>
</svg>
