<?xml version="1.0" encoding="utf-8"?>
<!-- Generator: Adobe Illustrator 21.0.0, SVG Export Plug-In . SVG Version: 6.00 Build 0)  -->
<svg version="1.1" id="Слой_1" xmlns="http://www.w3.org/2000/svg" xmlns:xlink="http://www.w3.org/1999/xlink" x="0px" y="0px"
	 viewBox="0 0 93.6 65.3" style="enable-background:new 0 0 93.6 65.3;" xml:space="preserve">
<g>
	<path d="M79.5,7.4H14.2c-4.7,0-8.6,3.8-8.6,8.6v33.4c0,4.7,3.8,8.6,8.6,8.6h65.3c4.7,0,8.6-3.8,8.6-8.6V16
		C88,11.3,84.2,7.4,79.5,7.4z M84.6,49.4c0,2.8-2.3,5.2-5.2,5.2H14.2c-2.8,0-5.2-2.3-5.2-5.2V16c0-2.8,2.3-5.2,5.2-5.2h65.3
		c2.8,0,5.2,2.3,5.2,5.2V49.4z"/>
	<circle cx="30.9" cy="27.4" r="7.7"/>
	<ellipse cx="30.9" cy="41.1" rx="12.8" ry="4.6"/>
	<path d="M75.5,23.6H55.6c-0.9,0-1.7,0.8-1.7,1.7s0.8,1.7,1.7,1.7h19.9c0.9,0,1.7-0.8,1.7-1.7S76.4,23.6,75.5,23.6z"/>
	<path d="M75.5,31H55.6c-0.9,0-1.7,0.8-1.7,1.7s0.8,1.7,1.7,1.7h19.9c0.9,0,1.7-0.8,1.7-1.7S76.4,31,75.5,31z"/>
	<path d="M75.5,38.3H55.6c-0.9,0-1.7,0.8-1.7,1.7s0.8,1.7,1.7,1.7h19.9c0.9,0,1.7-0.8,1.7-1.7S76.4,38.3,75.5,38.3z"/>
</g>
</svg>
