<?xml version="1.0" encoding="utf-8"?>
<!-- Generator: Adobe Illustrator 21.0.0, SVG Export Plug-In . SVG Version: 6.00 Build 0)  -->
<svg version="1.1" id="Слой_1" xmlns="http://www.w3.org/2000/svg" xmlns:xlink="http://www.w3.org/1999/xlink" x="0px" y="0px"
	 viewBox="0 0 93.6 65.3" style="enable-background:new 0 0 93.6 65.3;" xml:space="preserve">
<style type="text/css">
	.st0{fill:#FFFFFF;}
</style>
<g>
	<path class="st0" d="M89.6,49.1L87.5,9.2L4,13.7l2.2,39.9h0.1l0,0L84.9,56l0.2-6.7L89.6,49.1z M84.3,12.8L86,45.9L9.4,50.1L7.6,17
		L84.3,12.8z M81.5,52.6L46,51.5l35.7-1.9L81.5,52.6z"/>
	<path class="st0" d="M47.5,44.3c7.1-0.4,12.5-6.4,12.2-13.5c-0.4-7.1-6.4-12.5-13.5-12.2C39,19,33.6,25,34,32.1
		C34.3,39.2,40.4,44.7,47.5,44.3z M39.9,29.2c0.3-1.4,0.9-2.6,1.8-3.6c1.5-1.6,3.6-2.6,5.9-2.7c1.8-0.1,3.2,0.3,4,0.6L51,26.1
		c-0.7-0.3-1.7-0.6-3-0.5s-2.5,0.5-3.4,1.5c-0.4,0.5-0.8,1.1-0.9,1.8l7-0.4l0.1,1.8l-7.4,0.4c0,0.3,0,0.6,0,0.8c0,0.2,0,0.5,0.1,0.8
		l7.4-0.4l0.1,1.8l-6.9,0.4c0.2,0.6,0.6,1.2,1,1.6c1,0.9,2.2,1.2,3.6,1.1c1.4-0.1,2.6-0.5,3.3-0.9l0.6,2.5c-0.8,0.5-2.4,1.1-4.3,1.2
		c-2.2,0.1-4.3-0.5-5.8-1.9c-1-0.9-1.7-2.1-2.1-3.5l-2,0.1L38,32.7l1.7-0.1c0-0.3-0.1-0.5-0.1-0.7c0-0.2,0-0.6,0-0.9L38,31.2
		l-0.1-1.8L39.9,29.2z"/>
</g>
</svg>
