<?xml version="1.0" encoding="utf-8"?>
<!-- Generator: Adobe Illustrator 21.0.0, SVG Export Plug-In . SVG Version: 6.00 Build 0)  -->
<svg version="1.1" id="Слой_1" xmlns="http://www.w3.org/2000/svg" xmlns:xlink="http://www.w3.org/1999/xlink" x="0px" y="0px"
	 viewBox="0 0 93.6 65.3" style="enable-background:new 0 0 93.6 65.3;" xml:space="preserve">
<style type="text/css">
	.st0{fill:#FF2880;}
</style>
<g>
	<path class="st0" d="M39.9,11.6h13.8c1.7,0,3.1-1.4,3.1-3.1s-1.4-3.1-3.1-3.1h-2.6c0-2.4-1.9-4.3-4.3-4.3c-2.4,0-4.3,1.9-4.3,4.3
		h-2.6c-1.7,0-3.1,1.4-3.1,3.1C36.9,10.2,38.2,11.6,39.9,11.6z"/>
	<path class="st0" d="M66,5.4h-7.3c0.5,0.9,0.9,1.9,0.9,3.1c0,0.1,0,0.2,0,0.3H66c0.1,0,0.2,0.1,0.2,0.2v51.6c0,0.1-0.1,0.2-0.2,0.2
		H27.6c-0.1,0-0.2-0.1-0.2-0.2V9c0-0.1,0.1-0.2,0.2-0.2H34c0-0.1,0-0.2,0-0.3c0-1.1,0.3-2.2,0.9-3.1h-7.3C25.6,5.4,24,7,24,9v51.6
		c0,2,1.6,3.6,3.6,3.6H66c2,0,3.6-1.6,3.6-3.6V9C69.6,7,68,5.4,66,5.4z"/>
	<path class="st0" d="M41,43.9c1.9,1.9,4.9,1.9,6.7,0l11.2-11.2c0.9-0.9,0.9-2.3,0-3.2c-0.9-0.9-2.3-0.9-3.2,0L44.5,40.7
		c-0.1,0.1-0.3,0.1-0.4,0l-4.5-4.5c-0.9-0.9-2.3-0.9-3.2,0s-0.9,2.3,0,3.2L41,43.9z"/>
</g>
</svg>
