<?xml version="1.0" encoding="utf-8"?>
<!-- Generator: Adobe Illustrator 21.0.0, SVG Export Plug-In . SVG Version: 6.00 Build 0)  -->
<svg version="1.1" id="Слой_1" xmlns="http://www.w3.org/2000/svg" xmlns:xlink="http://www.w3.org/1999/xlink" x="0px" y="0px"
	 viewBox="0 0 93.6 65.3" style="enable-background:new 0 0 93.6 65.3;" xml:space="preserve">
<style type="text/css">
	.st0{fill:#FFFFFF;}
</style>
<g>
	<path class="st0" d="M3.9,41.2c5.8,2.4,12.4,2.4,18.2,0c5-2.1,10.6-2.1,15.6,0c5.8,2.4,12.4,2.4,18.2,0c5-2.1,10.6-2.1,15.6,0
		c2.9,1.2,6,1.8,9.1,1.8s6.2-0.6,9.1-1.8c0.9-0.4,1.3-1.4,0.9-2.2c-0.4-0.9-1.4-1.3-2.2-0.9c-5,2.1-10.6,2.1-15.6,0
		c-3.8-1.6-7.9-2.1-11.9-1.7V22.1h18.2c0.9,0,1.7-0.8,1.7-1.7s-0.8-1.7-1.7-1.7h-7.4v-6.8c0-3.9-3.2-7.1-7.1-7.1s-7.1,3.2-7.1,7.1
		v6.8H47v-6.8c0-3.9-3.2-7.1-7.1-7.1s-7.1,3.2-7.1,7.1v6.8H14.5c-0.9,0-1.7,0.8-1.7,1.7s0.8,1.7,1.7,1.7h18.2v14.4
		c-4-0.5-8.1,0.1-11.9,1.7c-5,2.1-10.6,2.1-15.6,0c-0.9-0.4-1.9,0-2.2,0.9C2.6,39.9,3,40.9,3.9,41.2z M60.9,11.9
		c0-2.1,1.7-3.7,3.7-3.7c2,0,3.7,1.7,3.7,3.7v6.8h-7.5v-6.8H60.9z M36.1,11.9c0-2.1,1.7-3.7,3.7-3.7s3.7,1.7,3.7,3.7v6.8H36
		L36.1,11.9L36.1,11.9z M57.5,22.1V29H36.1v-6.9H57.5z M36.1,32.3h21.4V37c-1,0.3-2,0.6-2.9,1c-5,2.1-10.6,2.1-15.6,0
		c-1-0.4-1.9-0.7-2.9-1V32.3z"/>
	<path class="st0" d="M3.9,50c5.8,2.4,12.4,2.4,18.2,0c5-2.1,10.6-2.1,15.6,0c5.8,2.4,12.4,2.4,18.2,0c5-2.1,10.6-2.1,15.6,0
		c2.9,1.2,6,1.8,9.1,1.8s6.2-0.6,9.1-1.8c0.9-0.4,1.3-1.4,0.9-2.2c-0.4-0.9-1.4-1.3-2.2-0.9c-5,2.1-10.6,2.1-15.6,0
		c-5.8-2.4-12.4-2.4-18.2,0C49.6,49,44,49,39,46.9c-5.8-2.4-12.4-2.4-18.2,0c-5,2.1-10.6,2.1-15.6,0c-0.9-0.4-1.9,0-2.2,0.9
		C2.6,48.6,3,49.6,3.9,50z"/>
	<path class="st0" d="M90.7,56.5c-0.4-0.9-1.4-1.3-2.2-0.9c-5,2.1-10.6,2.1-15.6,0c-5.8-2.4-12.4-2.4-18.2,0c-5,2.1-10.6,2.1-15.6,0
		c-5.8-2.4-12.4-2.4-18.2,0c-5,2.1-10.6,2.1-15.6,0c-0.9-0.4-1.9,0-2.2,0.9c-0.4,0.9,0,1.9,0.9,2.2c5.8,2.4,12.4,2.4,18.2,0
		c5-2.1,10.6-2.1,15.6,0c5.8,2.4,12.4,2.4,18.2,0c5-2.1,10.6-2.1,15.6,0c2.9,1.2,6,1.8,9.1,1.8s6.2-0.6,9.1-1.8
		C90.6,58.4,91,57.4,90.7,56.5z"/>
</g>
</svg>
